# xmcd
#
# Track frame offsets:
#	150
#	15440
#	31200
#	48553
#	71059
#	83855
#	105646
#	122208
#	136899
#	153129
#	169334
#	186485
#	199785
#	218966
#	233212
#	247550
#
# Disc length: 3529 seconds
#
# Revision: 0
# Processed by: cddbd v1.5.2PL0 Copyright (c) Steve Scherf et al.
# Submitted via: EasyCDDAExtractor 11.0.2.1
#
DISCID=d70dc710
DTITLE=Grands Corps Malade - Enfant de la ville
DYEAR=2008
DGENRE=Slam
TTITLE0=Mental
TTITLE1=Je viens de là
TTITLE2=Comme une évidence
TTITLE3=4 saisons
TTITLE4=Pères et mères
TTITLE5=A la recherche
TTITLE6=Le Blues de l'instituteur
TTITLE7=Rétroviseur
TTITLE8=J'écris à l'oral
TTITLE9=Enfant de la ville
TTITLE10=La nuit
TTITLE11=J'ai pas les mots
TTITLE12=Avec eux
TTITLE13=Underground
TTITLE14=L'appartement
TTITLE15=Du côté chance
EXTD=
EXTT0=
EXTT1=
EXTT2=
EXTT3=
EXTT4=
EXTT5=
EXTT6=
EXTT7=
EXTT8=
EXTT9=
EXTT10=
EXTT11=
EXTT12=
EXTT13=
EXTT14=
EXTT15=
PLAYORDER=
